<svg xmlns="http://www.w3.org/2000/svg" viewBox="0 0 512 512" width="512" height="512">
  <defs>
    <!-- Background Gradient (Royal Indigo to Deep Violet) -->
    <linearGradient id="bgGrad" x1="0%" y1="0%" x2="100%" y2="100%">
      <stop offset="0%" stop-color="#1E1B4B"/>
      <stop offset="50%" stop-color="#2E1065"/>
      <stop offset="100%" stop-color="#0F172A"/>
    </linearGradient>

    <!-- Warm Ghibli Gold & Coral Gradient -->
    <linearGradient id="goldGrad" x1="0%" y1="0%" x2="100%" y2="100%">
      <stop offset="0%" stop-color="#FCD34D"/>
      <stop offset="50%" stop-color="#F59E0B"/>
      <stop offset="100%" stop-color="#D97706"/>
    </linearGradient>

    <!-- Coral Pink Accent -->
    <linearGradient id="coralGrad" x1="0%" y1="0%" x2="100%" y2="100%">
      <stop offset="0%" stop-color="#F43F5E"/>
      <stop offset="100%" stop-color="#FB7185"/>
    </linearGradient>

    <!-- Soft Drop Shadow -->
    <filter id="shadow" x="-20%" y="-20%" width="140%" height="140%">
      <feDropShadow dx="0" dy="12" stdDeviation="16" flood-color="#000000" flood-opacity="0.6"/>
      <feGaussianBlur stdDeviation="8" result="blur"/>
    </filter>
  </defs>

  <!-- Squircle Base -->
  <rect x="24" y="24" width="464" height="464" rx="104" fill="url(#bgGrad)" stroke="url(#goldGrad)" stroke-width="10" filter="url(#shadow)"/>

  <!-- Inner Subtle Ring -->
  <rect x="36" y="36" width="440" height="440" rx="92" fill="none" stroke="#FFFFFF" stroke-width="2" opacity="0.12"/>

  <!-- Magic Sparkles (Miyazaki Aesthetic) -->
  <path d="M120 130 L126 150 L146 156 L126 162 L120 182 L114 162 L94 156 L114 150 Z" fill="#FCD34D" opacity="0.9"/>
  <path d="M390 110 L394 122 L406 126 L394 130 L390 142 L386 130 L374 126 L386 122 Z" fill="#FCD34D" opacity="0.9"/>

  <!-- Central Emblem: Film Clapperboard + Ghibli Star -->
  <g transform="translate(106, 150)">
    <!-- Clapper Body -->
    <rect x="20" y="80" width="260" height="160" rx="20" fill="#18181B" stroke="url(#goldGrad)" stroke-width="6" filter="url(#shadow)"/>
    
    <!-- Clapper Top Handle -->
    <g transform="rotate(-10, 20, 80)">
      <rect x="20" y="30" width="260" height="45" rx="10" fill="#18181B" stroke="url(#goldGrad)" stroke-width="6"/>
      <!-- Slanted Stripes -->
      <polygon points="50,30 90,30 55,75 15,75" fill="url(#goldGrad)"/>
      <polygon points="120,30 160,30 125,75 85,75" fill="url(#goldGrad)"/>
      <polygon points="190,30 230,30 195,75 155,75" fill="url(#goldGrad)"/>
      <polygon points="260,30 280,30 265,75 225,75" fill="url(#goldGrad)"/>
    </g>

    <!-- Glowing Star Center -->
    <path d="M150 115 L162 138 L188 142 L170 161 L174 186 L150 174 L126 186 L130 161 L112 142 L138 138 Z" fill="url(#goldGrad)"/>
    
    <!-- Heart / Camera Play Symbol -->
    <path d="M150 138 L160 155 L140 155 Z" fill="#18181B"/>
  </g>

  <!-- Title Badge Text GIBI -->
  <rect x="136" y="380" width="240" height="54" rx="27" fill="url(#coralGrad)" filter="url(#shadow)"/>
  <text x="256" y="417" font-family="'Inter', -apple-system, sans-serif" font-weight="900" font-size="28" fill="#FFFFFF" text-anchor="middle" letter-spacing="3">GIBI AI</text>
</svg>