<svg xmlns="http://www.w3.org/2000/svg" viewBox="0 0 512 512" width="512" height="512">
  <defs>
    <linearGradient id="bgGrad" x1="0%" y1="0%" x2="100%" y2="100%">
      <stop offset="0%" stop-color="#1A1C2C"/>
      <stop offset="100%" stop-color="#0E0F17"/>
    </linearGradient>
    <linearGradient id="goldGrad" x1="0%" y1="0%" x2="100%" y2="100%">
      <stop offset="0%" stop-color="#FFD700"/>
      <stop offset="50%" stop-color="#F5A623"/>
      <stop offset="100%" stop-color="#D98200"/>
    </linearGradient>
    <filter id="glow" x="-20%" y="-20%" width="140%" height="140%">
      <feGaussianBlur stdDeviation="12" result="blur"/>
      <feComposite in="SourceGraphic" in2="blur" operator="over"/>
    </filter>
  </defs>

  <!-- Background -->
  <rect x="16" y="16" width="480" height="480" rx="100" fill="url(#bgGrad)" stroke="url(#goldGrad)" stroke-width="12"/>

  <!-- Magic Sparkles -->
  <path d="M120 140 L125 155 L140 160 L125 165 L120 180 L115 165 L100 160 L115 155 Z" fill="#FFD700" opacity="0.8"/>
  <path d="M380 120 L383 130 L393 133 L383 136 L380 146 L377 136 L367 133 L377 130 Z" fill="#FFD700" opacity="0.8"/>

  <!-- Clapperboard Base -->
  <g transform="translate(106, 170)" filter="url(#glow)">
    <!-- Bottom Board -->
    <path d="M10 90 L290 90 Q300 90 300 100 L300 230 Q300 240 290 240 L10 240 Q0 240 0 230 L0 100 Q0 90 10 90 Z" fill="#1e1e2e" stroke="url(#goldGrad)" stroke-width="6"/>

    <!-- Clapper Top Strips -->
    <g transform="rotate(-12, 0, 80)">
      <path d="M10 20 L290 20 Q300 20 300 30 L300 75 Q300 85 290 85 L10 85 Q0 85 0 75 L0 30 Q0 20 10 20 Z" fill="#1e1e2e" stroke="url(#goldGrad)" stroke-width="6"/>
      <!-- Slanted Gold Zebra Stripes -->
      <polygon points="40,20 80,20 40,85 0,85" fill="url(#goldGrad)"/>
      <polygon points="120,20 160,20 120,85 80,85" fill="url(#goldGrad)"/>
      <polygon points="200,20 240,20 200,85 160,85" fill="url(#goldGrad)"/>
      <polygon points="280,20 300,20 300,50 280,85 240,85" fill="url(#goldGrad)"/>
    </g>

    <!-- Star Emblem Center -->
    <path d="M150 120 L162 145 L190 149 L170 169 L175 196 L150 183 L125 196 L130 169 L110 149 L138 145 Z" fill="url(#goldGrad)"/>
    
    <!-- Text GIBI -->
    <text x="150" y="225" font-family="'Inter', sans-serif" font-weight="900" font-size="26" fill="#FFFFFF" text-anchor="middle" letter-spacing="4">GIBI AI</text>
  </g>
</svg>