<svg xmlns="http://www.w3.org/2000/svg" viewBox="0 0 512 512" width="512" height="512">
  <defs>
    <!-- Ghibli Sky Blue & Emerald Forest Gradient -->
    <linearGradient id="ghibliSky" x1="0%" y1="0%" x2="0%" y2="100%">
      <stop offset="0%" stop-color="#38BDF8"/>
      <stop offset="55%" stop-color="#0284C7"/>
      <stop offset="100%" stop-color="#047857"/>
    </linearGradient>

    <!-- Totoro Fur Gradient -->
    <linearGradient id="totoroFur" x1="0%" y1="0%" x2="100%" y2="100%">
      <stop offset="0%" stop-color="#94A3B8"/>
      <stop offset="50%" stop-color="#64748B"/>
      <stop offset="100%" stop-color="#475569"/>
    </linearGradient>

    <!-- Warm Gold Ring Gradient -->
    <linearGradient id="goldBorder" x1="0%" y1="0%" x2="100%" y2="100%">
      <stop offset="0%" stop-color="#FDE047"/>
      <stop offset="50%" stop-color="#F59E0B"/>
      <stop offset="100%" stop-color="#D97706"/>
    </linearGradient>

    <!-- Drop Shadow for Totoro -->
    <filter id="ghibliShadow" x="-20%" y="-20%" width="140%" height="140%">
      <feDropShadow dx="0" dy="8" stdDeviation="10" flood-color="#022C22" flood-opacity="0.5"/>
    </filter>

    <clipPath id="circleClip">
      <circle cx="256" cy="256" r="240"/>
    </clipPath>
  </defs>

  <!-- Outer Gold Circle Frame -->
  <circle cx="256" cy="256" r="248" fill="none" stroke="url(#goldBorder)" stroke-width="16"/>

  <g clip-path="url(#circleClip)">
    <!-- Background Circle Sky & Forest -->
    <circle cx="256" cy="256" r="240" fill="url(#ghibliSky)"/>

    <!-- Fluffy Clouds & Sun Rays -->
    <circle cx="100" cy="120" r="50" fill="#FFFFFF" opacity="0.3"/>
    <circle cx="140" cy="110" r="40" fill="#FFFFFF" opacity="0.3"/>
    <circle cx="400" cy="160" r="60" fill="#FFFFFF" opacity="0.25"/>

    <!-- Magical Dust Sparkles -->
    <path d="M120 180 L124 192 L136 196 L124 200 L120 212 L116 200 L104 196 L116 192 Z" fill="#FDE047" opacity="0.95"/>
    <path d="M380 220 L383 230 L393 233 L383 236 L380 246 L377 236 L367 233 L377 230 Z" fill="#FDE047" opacity="0.95"/>

    <!-- TOTORO CHARACTER EMBLEM -->
    <g filter="url(#ghibliShadow)">
      <!-- Totoro Ears -->
      <path d="M185 190 Q160 80 180 60 Q205 70 205 180 Z" fill="url(#totoroFur)"/>
      <path d="M327 190 Q352 80 332 60 Q307 70 307 180 Z" fill="url(#totoroFur)"/>

      <!-- Totoro Leaf on Head 🍃 -->
      <path d="M256 120 Q290 80 305 105 Q285 145 256 120 Z" fill="#22C55E"/>
      <path d="M256 120 Q230 90 220 110 Q240 140 256 120 Z" fill="#16A34A"/>
      <path d="M256 120 L280 100" stroke="#15803D" stroke-width="3" stroke-linecap="round"/>

      <!-- Totoro Head & Main Body -->
      <path d="M150 260 Q140 180 256 175 Q372 180 362 260 Q375 360 360 440 L152 440 Q137 360 150 260 Z" fill="url(#totoroFur)"/>

      <!-- Totoro White Belly -->
      <ellipse cx="256" cy="355" rx="95" ry="90" fill="#FFFBEB"/>

      <!-- Totoro Chest Chevrons -->
      <path d="M225 295 Q235 285 245 295" stroke="#475569" stroke-width="6" fill="none" stroke-linecap="round"/>
      <path d="M246 295 Q256 285 266 295" stroke="#475569" stroke-width="6" fill="none" stroke-linecap="round"/>
      <path d="M267 295 Q277 285 287 295" stroke="#475569" stroke-width="6" fill="none" stroke-linecap="round"/>
      <path d="M205 320 Q215 310 225 320" stroke="#475569" stroke-width="6" fill="none" stroke-linecap="round"/>
      <path d="M226 320 Q236 310 246 320" stroke="#475569" stroke-width="6" fill="none" stroke-linecap="round"/>
      <path d="M266 320 Q276 310 286 320" stroke="#475569" stroke-width="6" fill="none" stroke-linecap="round"/>
      <path d="M287 320 Q297 310 307 320" stroke="#475569" stroke-width="6" fill="none" stroke-linecap="round"/>

      <!-- Totoro Eyes -->
      <circle cx="210" cy="215" r="22" fill="#FFFFFF"/>
      <circle cx="210" cy="215" r="8" fill="#0F172A"/>
      <circle cx="213" cy="212" r="3" fill="#FFFFFF"/>

      <circle cx="302" cy="215" r="22" fill="#FFFFFF"/>
      <circle cx="302" cy="215" r="8" fill="#0F172A"/>
      <circle cx="305" cy="212" r="3" fill="#FFFFFF"/>

      <!-- Totoro Nose & Whiskers -->
      <ellipse cx="256" cy="222" rx="14" ry="8" fill="#0F172A"/>

      <line x1="120" y1="220" x2="180" y2="225" stroke="#334155" stroke-width="4" stroke-linecap="round"/>
      <line x1="115" y1="235" x2="178" y2="235" stroke="#334155" stroke-width="4" stroke-linecap="round"/>
      <line x1="122" y1="250" x2="182" y2="245" stroke="#334155" stroke-width="4" stroke-linecap="round"/>

      <line x1="392" y1="220" x2="332" y2="225" stroke="#334155" stroke-width="4" stroke-linecap="round"/>
      <line x1="397" y1="235" x2="334" y2="235" stroke="#334155" stroke-width="4" stroke-linecap="round"/>
      <line x1="390" y1="250" x2="330" y2="245" stroke="#334155" stroke-width="4" stroke-linecap="round"/>
    </g>
  </g>
</svg>