<svg xmlns="http://www.w3.org/2000/svg" viewBox="0 0 512 512" width="512" height="512">
  <defs>
    <!-- Ghibli Sky Blue & Emerald Forest Gradient -->
    <linearGradient id="ghibliSky" x1="0%" y1="0%" x2="0%" y2="100%">
      <stop offset="0%" stop-color="#38BDF8"/>
      <stop offset="60%" stop-color="#0284C7"/>
      <stop offset="100%" stop-color="#059669"/>
    </linearGradient>

    <!-- Totoro Fur Gradient -->
    <linearGradient id="totoroFur" x1="0%" y1="0%" x2="100%" y2="100%">
      <stop offset="0%" stop-color="#94A3B8"/>
      <stop offset="50%" stop-color="#64748B"/>
      <stop offset="100%" stop-color="#475569"/>
    </linearGradient>

    <!-- Warm Gold Ring Gradient -->
    <linearGradient id="goldBorder" x1="0%" y1="0%" x2="100%" y2="100%">
      <stop offset="0%" stop-color="#FDE047"/>
      <stop offset="50%" stop-color="#F59E0B"/>
      <stop offset="100%" stop-color="#D97706"/>
    </linearGradient>

    <!-- Drop Shadow for Totoro -->
    <filter id="ghibliShadow" x="-20%" y="-20%" width="140%" height="140%">
      <feDropShadow dx="0" dy="6" stdDeviation="8" flood-color="#022C22" flood-opacity="0.4"/>
    </filter>

    <clipPath id="circleClip">
      <circle cx="256" cy="256" r="236"/>
    </clipPath>
  </defs>

  <!-- Transparent background container -->
  <g clip-path="url(#circleClip)">
    <!-- Background Circle Sky & Forest -->
    <circle cx="256" cy="256" r="236" fill="url(#ghibliSky)"/>

    <!-- Fluffy Clouds & Sun Sparkles -->
    <circle cx="110" cy="110" r="45" fill="#FFFFFF" opacity="0.35"/>
    <circle cx="400" cy="130" r="55" fill="#FFFFFF" opacity="0.3"/>
    <path d="M120 160 L124 172 L136 176 L124 180 L120 192 L116 180 L104 176 L116 172 Z" fill="#FDE047" opacity="0.9"/>
    <path d="M380 180 L383 190 L393 193 L383 196 L380 206 L377 196 L367 193 L377 190 Z" fill="#FDE047" opacity="0.9"/>

    <!-- TOTORO CHARACTER EMBLEM (LARGE, FILLING THE FRAME) -->
    <g filter="url(#ghibliShadow)">
      <!-- Totoro Ears (Tall & Big) -->
      <path d="M165 190 Q125 40 160 20 Q195 35 195 180 Z" fill="url(#totoroFur)"/>
      <path d="M347 190 Q387 40 352 20 Q317 35 317 180 Z" fill="url(#totoroFur)"/>

      <!-- Totoro Leaf on Head 🍃 -->
      <path d="M256 95 Q300 45 320 75 Q295 125 256 95 Z" fill="#22C55E"/>
      <path d="M256 95 Q220 55 205 80 Q235 120 256 95 Z" fill="#16A34A"/>
      <path d="M256 95 L290 65" stroke="#15803D" stroke-width="4" stroke-linecap="round"/>

      <!-- Totoro Head & Body (Large Oval filling center) -->
      <path d="M110 280 Q95 140 256 130 Q417 140 402 280 Q420 420 395 490 L117 490 Q92 420 110 280 Z" fill="url(#totoroFur)"/>

      <!-- Totoro White Belly (Big & Bright) -->
      <ellipse cx="256" cy="385" rx="125" ry="110" fill="#FFFBEB"/>

      <!-- Totoro Chest Chevrons -->
      <path d="M210 310 Q225 295 240 310" stroke="#475569" stroke-width="8" fill="none" stroke-linecap="round"/>
      <path d="M242 310 Q256 295 270 310" stroke="#475569" stroke-width="8" fill="none" stroke-linecap="round"/>
      <path d="M272 310 Q286 295 300 310" stroke="#475569" stroke-width="8" fill="none" stroke-linecap="round"/>
      
      <path d="M185 345 Q200 330 215 345" stroke="#475569" stroke-width="8" fill="none" stroke-linecap="round"/>
      <path d="M216 345 Q230 330 245 345" stroke="#475569" stroke-width="8" fill="none" stroke-linecap="round"/>
      <path d="M267 345 Q281 330 295 345" stroke="#475569" stroke-width="8" fill="none" stroke-linecap="round"/>
      <path d="M296 345 Q310 330 325 345" stroke="#475569" stroke-width="8" fill="none" stroke-linecap="round"/>

      <!-- Totoro Big Iconic Eyes -->
      <circle cx="195" cy="205" r="30" fill="#FFFFFF"/>
      <circle cx="195" cy="205" r="11" fill="#0F172A"/>
      <circle cx="199" cy="201" r="4" fill="#FFFFFF"/>

      <circle cx="317" cy="205" r="30" fill="#FFFFFF"/>
      <circle cx="317" cy="205" r="11" fill="#0F172A"/>
      <circle cx="321" cy="201" r="4" fill="#FFFFFF"/>

      <!-- Totoro Nose & Cute Whiskers -->
      <ellipse cx="256" cy="212" rx="18" ry="10" fill="#0F172A"/>

      <line x1="80" y1="210" x2="155" y2="218" stroke="#334155" stroke-width="6" stroke-linecap="round"/>
      <line x1="75" y1="232" x2="152" y2="232" stroke="#334155" stroke-width="6" stroke-linecap="round"/>
      <line x1="85" y1="254" x2="157" y2="246" stroke="#334155" stroke-width="6" stroke-linecap="round"/>

      <line x1="432" y1="210" x2="357" y2="218" stroke="#334155" stroke-width="6" stroke-linecap="round"/>
      <line x1="437" y1="232" x2="360" y2="232" stroke="#334155" stroke-width="6" stroke-linecap="round"/>
      <line x1="427" y1="254" x2="355" y2="246" stroke="#334155" stroke-width="6" stroke-linecap="round"/>
    </g>
  </g>

  <!-- Outer Gold Ring Frame -->
  <circle cx="256" cy="256" r="244" fill="none" stroke="url(#goldBorder)" stroke-width="20"/>
</svg>